<svg width="32" height="32" viewBox="0 0 32 32" fill="none" xmlns="http://www.w3.org/2000/svg">
<circle cx="16" cy="16" r="16" fill="white"/>
<path d="M26.8031 18.2592C26.7389 18.2609 26.675 18.2675 26.6118 18.2789L25.0435 18.5327C25.0678 17.6767 24.87 16.829 24.4693 16.0721C24.1138 15.3962 23.6017 14.7924 22.9484 14.2746C22.1279 13.6258 21.2978 13.1933 20.4809 12.9899C19.8008 12.8205 19.1273 12.8079 18.4789 12.9527C17.3834 13.1973 16.6129 13.8466 16.3523 14.1628C16.3506 14.1644 16.3494 14.1661 16.348 14.1677C16.1456 14.4015 15.9698 14.657 15.8238 14.9296L15.4588 15.8136V15.8166C15.2088 16.5361 15.0098 17.3682 14.8839 18.131C14.7097 19.1882 14.655 20.1562 14.7154 20.9558C14.7557 21.4907 14.8474 21.9499 14.9891 22.3099C14.989 22.3106 14.989 22.3113 14.9891 22.312C15.0235 22.3945 15.0602 22.4734 15.0972 22.549C15.0986 22.5516 15.0998 22.5545 15.1015 22.5571C15.2316 22.8178 15.3759 23.0272 15.502 23.1543C15.5838 23.2346 15.6765 23.3029 15.7773 23.3574C15.4271 23.533 15.0721 23.706 14.7123 23.8761H14.7112C14.177 24.1289 13.6333 24.3765 13.08 24.619L12.5421 24.7309C12.5512 24.7232 12.5586 24.7138 12.5639 24.7032C12.5692 24.6925 12.5722 24.6809 12.5729 24.669L13.0468 15.9112C13.0479 15.89 13.0567 15.87 13.0716 15.8548C13.0864 15.8397 13.1063 15.8305 13.1274 15.829L13.2739 15.8183C13.295 15.8168 13.3149 15.8077 13.3298 15.7926C13.3447 15.7775 13.3535 15.7575 13.3547 15.7363L13.3838 15.2012C13.3848 15.1866 13.3893 15.1725 13.3969 15.16C13.3969 15.16 13.6504 14.6668 13.6504 14.6507L13.6978 14.0582C13.6975 14.0396 13.7032 14.0213 13.7142 14.0061C13.7237 13.9933 13.7366 13.9833 13.7514 13.9773C13.7662 13.9712 13.7823 13.9693 13.7981 13.9717C13.8139 13.9742 13.8287 13.9809 13.841 13.9911C13.8533 14.0013 13.8625 14.0147 13.8677 14.0298C13.9059 14.1399 13.9378 14.2521 13.9633 14.3658C13.9673 14.3836 13.9692 14.4019 13.9689 14.4201C13.9625 14.5099 13.909 14.8855 13.8815 15.0754C13.8796 15.0884 13.8808 15.1017 13.8848 15.1143C13.8888 15.1269 13.8957 15.1383 13.9048 15.1479C13.914 15.1574 13.9251 15.1647 13.9375 15.1693C13.9499 15.1738 13.9632 15.1755 13.9763 15.1742L14.0448 15.1668C14.0576 15.1654 14.0707 15.1669 14.0829 15.1711C14.0951 15.1753 14.1062 15.1822 14.1155 15.1913C14.1247 15.2004 14.1317 15.2114 14.1362 15.2236C14.1406 15.2358 14.1422 15.2488 14.141 15.2616L14.0419 16.3247C14.0407 16.3385 14.0362 16.3517 14.0289 16.3633C14.0215 16.3749 14.0114 16.3846 13.9995 16.3916C13.918 16.439 13.7331 16.5795 13.7357 16.8816C13.7391 17.2691 13.6478 17.471 13.5936 17.5165C13.5393 17.562 13.7561 17.8096 13.945 17.4743C14.1938 17.0326 14.2197 17.3373 14.1893 17.5492C14.1893 17.5492 13.9997 17.8504 13.8377 17.8488C13.7971 17.8488 13.6158 17.8111 13.5758 17.7511C13.5402 17.698 13.3502 17.7838 13.517 17.9627C13.6729 18.1286 13.9159 18.1026 13.9159 18.1026C13.9841 18.1026 14.2754 18.0933 14.528 17.7933C14.7443 17.5366 14.7176 17.526 14.7263 17.3667C14.7351 17.2212 14.6642 16.6826 14.6529 16.5847C14.6529 16.575 15.0235 15.0787 15.0235 15.0787C15.0264 15.0663 15.0319 15.0547 15.0397 15.0447C15.0475 15.0346 15.0575 15.0264 15.0688 15.0206L15.4422 14.8161C15.453 14.8106 15.4625 14.803 15.4701 14.7936C15.4777 14.7843 15.4833 14.7734 15.4865 14.7618C15.4898 14.7501 15.4905 14.738 15.4888 14.726C15.487 14.7141 15.4828 14.7026 15.4764 14.6924L15.3944 14.5232C15.3866 14.5107 15.3757 14.5004 15.3628 14.4934C15.3499 14.4863 15.3354 14.4826 15.3207 14.4827L15.3484 14.4495L15.1922 12.9127C15.1922 12.9127 15.2806 9.91867 15.179 9.67198C15.0875 9.44969 14.8709 9.27338 13.7983 8.40176L13.4395 8.07165L13.3696 8.00056C13.3091 7.93944 13.275 7.85695 13.2748 7.77092V7.44981C13.2748 7.44436 13.2786 7.41948 13.2848 7.38275C13.3085 7.38844 13.3447 7.38038 13.3796 7.319C13.4393 7.21591 13.636 6.741 13.3962 6.79764L13.4263 6.6993H13.5447L15.1287 6.74669C15.1409 6.74671 15.1525 6.74208 15.1613 6.73374C15.1702 6.72541 15.1754 6.71402 15.1761 6.7019L15.1863 6.46492C15.1868 6.45247 15.1824 6.44031 15.174 6.43108C15.1656 6.42186 15.154 6.41631 15.1415 6.41563C15.0263 6.40971 14.6126 6.34051 14.2884 6.245C13.4222 5.99049 13.7466 4.79468 12.6146 4.74587C11.4029 4.69373 11.725 6.03338 10.6192 6.27913C10.24 6.36326 9.94145 6.38293 9.86325 6.37392C9.85687 6.37334 9.85044 6.37405 9.84435 6.37603C9.83825 6.378 9.83262 6.38118 9.82779 6.38539C9.82297 6.3896 9.81904 6.39474 9.81626 6.40051C9.81347 6.40628 9.81188 6.41255 9.81159 6.41895L9.80211 6.63673C9.80192 6.64308 9.803 6.64939 9.8053 6.65531C9.8076 6.66122 9.81106 6.66662 9.81548 6.67117C9.8199 6.67572 9.82519 6.67934 9.83103 6.68181C9.83688 6.68428 9.84316 6.68555 9.84951 6.68555L11.4709 6.70451H11.4851C11.4584 6.8467 11.3873 7.12776 11.4728 7.22089C11.5844 7.34222 11.5754 7.68371 11.6195 7.76263C11.6965 7.90031 11.5484 7.91572 11.5484 7.91572L10.25 8.23635C10.2103 8.24275 10.1728 8.25916 10.1412 8.28404C10.1096 8.30891 10.0848 8.34144 10.0692 8.37854L9.63693 9.73265C9.60423 9.85351 9.51679 10.3488 9.33786 10.0718L9.22696 9.91536C9.19219 9.85885 9.1681 9.79643 9.15586 9.73122C9.14307 9.62482 9.19781 9.44685 8.99472 9.31674L9.06297 8.92217L9.29568 7.57494C9.29712 7.56635 9.29676 7.55755 9.29463 7.5491C9.2925 7.54065 9.28864 7.53274 9.2833 7.52586C9.27795 7.51898 9.27124 7.51328 9.26358 7.50912C9.25592 7.50497 9.24749 7.50244 9.23881 7.50171L8.93855 7.47801C8.92301 7.4767 8.90754 7.48121 8.89514 7.49067C8.88275 7.50013 8.87432 7.51387 8.87149 7.5292L8.64446 8.75415L8.58758 9.06057C8.58148 9.05452 8.57384 9.05024 8.5655 9.04819C8.55715 9.04615 8.5484 9.04641 8.54019 9.04896C8.52638 9.05231 8.51363 9.05905 8.50308 9.06856C8.49253 9.07808 8.48451 9.09007 8.47976 9.10346C8.46633 9.09458 8.45122 9.08852 8.43537 9.08567C8.41952 9.08282 8.40326 9.08323 8.38757 9.08687C8.30368 9.10725 8.1622 9.19186 8.28946 9.30774C8.28946 9.30774 8.09372 9.41983 8.22358 9.53311C8.22358 9.53311 8.05272 9.6407 8.15747 9.76156C8.15747 9.76156 8.01646 9.84308 8.14514 9.97674C8.22001 10.0446 8.29986 10.1068 8.38402 10.1628L8.37098 10.2339L7.15741 16.7698C7.13821 16.8034 7.12494 16.8271 7.11854 16.839C7.11528 16.845 7.1113 16.8505 7.10669 16.8556L6.50642 17.5222C6.50094 17.5283 6.49631 17.5352 6.49268 17.5426L6.06114 18.431C6.05739 18.439 6.05476 18.4474 6.05332 18.4561L5.79785 20.1515C5.79583 20.1643 5.79106 20.1765 5.78387 20.1873L4.95349 21.4146C4.94677 21.4247 4.94217 21.4361 4.93998 21.448L4.79637 22.2414C4.79372 22.2561 4.79487 22.2712 4.79972 22.2853C4.80458 22.2994 4.81297 22.3121 4.8241 22.322L5.2355 22.6893C5.24702 22.6998 5.25551 22.7132 5.2601 22.728C5.26468 22.7429 5.26519 22.7588 5.26156 22.7739C5.21677 22.9649 5.04496 23.6415 4.82268 23.8121C4.81161 23.8209 4.80269 23.8321 4.79662 23.8448C4.79054 23.8575 4.78745 23.8715 4.7876 23.8856V24.5453C4.78773 24.5634 4.79348 24.581 4.80405 24.5956C4.81463 24.6103 4.8295 24.6213 4.84661 24.6271L5.34427 24.7977C5.36043 24.8035 5.37793 24.8043 5.39456 24.8001C5.41118 24.7959 5.42618 24.7868 5.43764 24.774C5.52646 24.6715 5.59037 24.5499 5.62438 24.4186C5.69927 24.1448 5.80994 24.0394 5.80994 24.0394L5.80757 24.0524L5.61514 25.0906C5.61514 25.0937 5.61301 25.0987 5.61229 25.1015C5.37745 25.7888 5.21962 26.2464 5.10042 26.6485C5.09462 26.6681 5.09347 26.6887 5.09705 26.7088C5.10064 26.7288 5.10885 26.7478 5.12105 26.7641C5.13325 26.7804 5.14909 26.7936 5.16732 26.8028C5.18554 26.8119 5.20564 26.8166 5.22602 26.8166H6.08341C6.11603 26.8167 6.14751 26.8045 6.17166 26.7826C6.19582 26.7607 6.21092 26.7305 6.21399 26.6981C6.24598 26.3317 6.20806 25.8729 6.25475 25.1883C6.25453 25.1862 6.25453 25.1842 6.25475 25.1821L6.63961 22.9545L6.64269 22.9367C6.95313 22.5315 7.26026 22.1405 7.38301 22.0139C7.63492 21.7532 8.01243 21.2793 8.10012 21.1693C8.11217 21.154 8.11868 21.135 8.1186 21.1155V20.4226C8.11865 20.4058 8.12359 20.3893 8.13282 20.3752L9.95757 17.5788L10.0609 17.4409C10.0677 17.4305 10.0766 17.4216 10.087 17.4149C10.0975 17.4083 10.1093 17.4039 10.1216 17.4021C10.1339 17.4003 10.1464 17.4012 10.1583 17.4047C10.1703 17.4081 10.1813 17.4141 10.1908 17.4222L10.2064 17.4357C10.2159 17.4438 10.2236 17.4539 10.2289 17.4653C10.2341 17.4767 10.2369 17.489 10.237 17.5016L10.254 23.6647C10.2541 23.6738 10.2528 23.6828 10.25 23.6915L10.1277 24.0747C10.1253 24.0824 10.1239 24.0903 10.1237 24.0984L10.1085 24.7081C10.1079 24.7302 10.1157 24.7516 10.1303 24.7681C10.145 24.7846 10.1653 24.7949 10.1872 24.797L10.4121 24.8193C10.4336 24.8214 10.4536 24.8315 10.4682 24.8475C10.4827 24.8635 10.4908 24.8844 10.4908 24.906V24.9269C10.4908 24.938 10.4878 24.9489 10.482 24.9584C10.4597 24.9949 10.4019 25.0958 10.3844 25.1823L7.10409 25.8646C7.06457 25.8728 7.02909 25.8944 7.00362 25.9256C6.97815 25.9569 6.96425 25.9961 6.96427 26.0364V26.2587C6.96427 26.3003 6.97904 26.3406 7.00595 26.3723C7.03286 26.404 7.07016 26.4252 7.1112 26.4319L8.71911 26.6988C23.1081 28.8572 24.8468 24.0446 24.8468 24.0446L26.6716 20.2418L26.646 19.137L26.9017 18.7069C26.9078 18.695 26.9135 18.6832 26.919 18.6725C27.0858 18.3315 26.969 18.2592 26.8031 18.2592ZM9.29639 12.1899C9.21843 12.2984 9.03761 12.4307 9.03761 12.5347C9.03761 12.6387 9.09283 12.8113 9.09283 12.9155C9.09283 13.0198 8.86248 13.2978 8.86248 13.3895C8.86248 13.4812 8.90158 13.7059 8.90158 13.8232C8.89675 13.8453 8.88877 13.8666 8.87789 13.8864C8.83049 13.922 8.37691 14.681 7.94205 15.4216L7.96385 15.295L8.69186 11.0718C8.81035 11.3989 8.93808 11.7017 9.03074 11.7752C9.20397 11.9129 9.54285 11.7662 9.5438 11.7752C9.54901 11.8302 9.36417 12.0956 9.29639 12.1899ZM22.8012 14.4606C23.1389 14.7255 23.4463 15.027 23.7176 15.3595C22.8699 16.2226 21.7163 17.384 20.5826 18.5019C20.3431 18.2465 20.0829 18.0114 19.8048 17.7987C19.5662 17.616 18.9991 17.2731 18.3118 17.0684C19.2782 15.1183 20.247 13.2919 20.3025 13.1885C21.1229 13.3689 21.9585 13.7938 22.8012 14.4606ZM15.9954 19.2967C15.7918 18.9208 15.6459 18.5164 15.5626 18.0971C15.5524 18.045 15.543 17.9926 15.5347 17.94C15.8856 17.5054 16.3361 17.2449 16.876 17.1655C16.9978 17.1479 17.1207 17.1392 17.2438 17.1395C17.4883 17.1411 17.7318 17.17 17.9699 17.2257C17.577 18.0236 17.2431 18.7234 16.9684 19.3254C16.6487 19.2476 16.3136 19.2251 15.9954 19.2967ZM16.8698 19.5441C16.7712 19.7636 16.6813 19.9689 16.6001 20.1603C16.4219 19.9592 16.2614 19.743 16.1205 19.5142C16.2137 19.4983 16.3081 19.4903 16.4027 19.4906C16.5599 19.4913 16.7165 19.5093 16.8698 19.5441V19.5441ZM16.4982 20.4013C16.2911 20.9022 16.1527 21.2893 16.083 21.5625C15.7489 21.2165 15.3752 20.733 15.1799 20.1619C15.242 20.0606 15.3163 19.9671 15.401 19.8837C15.5368 19.7479 15.7008 19.6435 15.8814 19.578C16.0575 19.8733 16.2643 20.1493 16.4982 20.4013ZM16.6781 20.5871C16.9656 20.8679 17.2801 21.1197 17.617 21.3388C17.1938 21.721 16.8698 21.9921 16.6971 22.0971L16.6911 22.1007C16.675 22.0867 16.6584 22.0729 16.6411 22.0594C16.6196 22.0445 16.6004 22.0303 16.5838 22.017C16.5833 22.0163 16.5826 22.0158 16.5819 22.0153C16.5013 21.9511 16.397 21.8634 16.2809 21.7547C16.3143 21.5701 16.4181 21.2234 16.6781 20.5871V20.5871ZM16.7769 20.3501C16.8686 20.1328 16.9762 19.8863 17.1018 19.6069C17.1803 19.6306 17.2573 19.6593 17.3324 19.6894C17.5997 19.7969 17.8533 19.9356 18.0881 20.1024C18.2458 20.22 18.3903 20.3542 18.5192 20.5027C18.2611 20.747 18.0189 20.9731 17.7988 21.1743C17.4283 20.9386 17.0855 20.662 16.7769 20.3496V20.3501ZM18.2263 19.91C17.9121 19.6862 17.5662 19.5109 17.1999 19.3898C17.4592 18.8211 17.7881 18.1296 18.2045 17.2854C18.8804 17.4807 19.4446 17.8206 19.6607 17.986C19.9302 18.1919 20.1819 18.4199 20.4134 18.6678C19.8122 19.2602 19.2214 19.8335 18.6898 20.3394C18.5504 20.1807 18.3951 20.0366 18.2263 19.9095V19.91ZM15.675 15.911V15.9084C15.768 15.5912 15.8958 15.2852 16.0558 14.996V14.996C16.1884 14.7561 16.3459 14.5308 16.5255 14.3237L16.5281 14.3206C16.7651 14.0291 17.489 13.417 18.5294 13.1847C18.8147 13.121 19.1061 13.0888 19.3984 13.0888C19.6192 13.089 19.8395 13.1069 20.0574 13.1423C19.8679 13.5018 18.9688 15.2062 18.0775 17.0051C17.6834 16.9103 17.2592 16.8691 16.8404 16.9307C16.326 17.0012 15.8513 17.2459 15.4953 17.6239C15.4492 17.0467 15.5101 16.466 15.675 15.911ZM15.2484 17.4634C15.2546 17.601 15.2668 17.738 15.2851 17.8743C15.2759 17.8867 15.2666 17.898 15.2576 17.9116L15.2536 17.9175C15.2038 17.9965 15.1587 18.0744 15.1181 18.1514C15.1574 17.9179 15.201 17.6878 15.2489 17.4634H15.2484ZM15.347 18.226C15.4339 18.6231 15.5742 19.0067 15.7641 19.3661C15.5654 19.4441 15.3851 19.5622 15.2342 19.7131C15.1858 19.7608 15.1403 19.8114 15.0979 19.8645C14.9903 19.3661 15.0316 18.8104 15.3475 18.226H15.347ZM15.3911 22.0689C15.3282 22.1445 15.28 22.2311 15.2489 22.3244C15.2508 22.3291 15.2529 22.3338 15.2553 22.3383C15.2529 22.3338 15.2508 22.3293 15.2486 22.3246C15.0932 21.9817 14.9929 21.5229 14.9496 20.9762C14.9543 20.8018 14.9846 20.629 15.0394 20.4634C15.2775 21.0132 15.6555 21.471 15.9811 21.7964C15.8683 21.7921 15.7561 21.8146 15.6537 21.8619C15.5512 21.9093 15.4614 21.9802 15.3915 22.0689H15.3911ZM16.7788 22.8431C16.5527 22.963 16.3245 23.0815 16.0942 23.1986C15.988 23.1626 15.8872 23.1126 15.7944 23.0498C15.6522 22.955 15.4882 22.7829 15.4584 22.5865C15.4394 22.4609 15.479 22.3369 15.5769 22.218C15.6221 22.1594 15.6802 22.1122 15.7468 22.0801C15.8134 22.0479 15.8866 22.0317 15.9605 22.0326C16.046 22.0342 16.1306 22.0511 16.2101 22.0826C16.2918 22.1141 16.3692 22.1557 16.4406 22.2063L16.4428 22.2078C16.461 22.2206 16.48 22.2348 16.4994 22.2502C16.6565 22.3758 16.8343 22.5803 16.7788 22.8431ZM17.0267 22.7106C17.0242 22.652 17.0141 22.5939 16.9966 22.5379C17.0557 22.5673 17.1177 22.5967 17.1826 22.6263C17.1305 22.6546 17.0784 22.6827 17.0262 22.7106H17.0267ZM17.4478 22.4812C17.2473 22.3964 17.0686 22.3099 16.9229 22.2308C17.1295 22.0817 17.4428 21.8146 17.8234 21.4696C18.0023 21.5783 18.1935 21.6836 18.3972 21.7855C18.4424 21.8108 18.4879 21.8357 18.5332 21.8596C18.1779 22.0706 17.8159 22.2778 17.4473 22.4812H17.4478ZM18.7735 21.7167C18.6865 21.6731 18.5993 21.6265 18.5128 21.5774L18.5076 21.5746C18.3313 21.4866 18.1649 21.396 18.0085 21.3027C18.2144 21.1132 18.437 20.9063 18.6709 20.6849C18.8541 20.9238 19.0209 21.2063 19.1166 21.5082C19.0024 21.5782 18.8879 21.6477 18.773 21.7167H18.7735ZM20.9347 20.3034C20.4167 20.6725 19.8795 21.0309 19.3233 21.3788C19.2236 21.0995 19.0818 20.8371 18.9029 20.6006C18.8827 20.5736 18.8626 20.5472 18.8422 20.5214C19.3873 20.0034 19.9837 19.4232 20.5722 18.8453C20.8565 19.1796 21.1215 19.5799 21.2831 20.0316C21.1393 20.1581 21.0158 20.2586 20.9343 20.3034H20.9347ZM24.8049 18.5715L22.3538 18.968C22.3538 18.968 21.8879 19.4635 21.471 19.8564C21.2947 19.4078 21.0255 19.0107 20.7404 18.6789C22.1756 17.2625 23.5185 15.8996 23.8645 15.5484C24.3987 16.2653 24.7207 17.1179 24.794 18.0089C24.8089 18.1961 24.8124 18.384 24.8044 18.5715H24.8049Z" fill="black"/>
</svg>
