<svg xmlns="http://www.w3.org/2000/svg" viewBox="0 0 141.73 42.52">
    <defs>
        <style>.cls-1{fill:#231f20;}.cls-2{fill:#fff;}</style>
    </defs>
    <g id="Layer_2" data-name="Layer 2">
        <g id="Layer_1-2" data-name="Layer 1">
            <rect class="cls-1" width="141.73" height="42.52"/>
            <path class="cls-2" d="M51.31,15.51a2.66,2.66,0,0,0-.82.54,2.46,2.46,0,0,0-.5.75,2.17,2.17,0,0,0-.16.82v9.62h2.75V22.51H55.7V20H52.58V17.86a.18.18,0,0,1,.06-.15s.07-.07.25-.07h3.56V15.31h-4A3,3,0,0,0,51.31,15.51Z"/>
            <rect class="cls-2" x="58.02" y="15.31" width="2.75" height="11.94"/>
            <path class="cls-2" d="M31.55,24.81a.15.15,0,0,1-.06-.12V15.31H28.74v9.62a2.23,2.23,0,0,0,.17.82A2.36,2.36,0,0,0,30.21,27a2.75,2.75,0,0,0,1.11.21h3.77V24.88H31.8A.33.33,0,0,1,31.55,24.81Z"/>
            <rect class="cls-2" x="15.49" y="15.31" width="2.75" height="11.94"/>
            <path class="cls-2" d="M38.27,15.51a2.61,2.61,0,0,0-.81.54,2.46,2.46,0,0,0-.5.75,2.17,2.17,0,0,0-.16.82v7.31a2.21,2.21,0,0,0,.16.82,2.59,2.59,0,0,0,.5.75,2.42,2.42,0,0,0,.81.53,2.75,2.75,0,0,0,1.11.21h4V24.9H39.85c-.17,0-.22,0-.24-.07a.13.13,0,0,1-.06-.13V22.51h3.07V20H39.55V17.86a.18.18,0,0,1,.06-.15s.07-.07.24-.07h3.52V15.31h-4A2.93,2.93,0,0,0,38.27,15.51Z"/>
            <path class="cls-2" d="M26.42,16.08a3,3,0,0,0-1.11-.66,5.35,5.35,0,0,0-1.82-.25,5.41,5.41,0,0,0-1.83.25,3,3,0,0,0-1.1.66A1.94,1.94,0,0,0,20,17l-.09.6v9.64h2.75V17.85l0-.11a.77.77,0,0,1,.2-.09,1.78,1.78,0,0,1,.52-.06,2,2,0,0,1,.59.06.87.87,0,0,1,.21.1s0,.07,0,.07v9.42H27V17.6L27,17A1.89,1.89,0,0,0,26.42,16.08Z"/>
            <path class="cls-2" d="M68.81,16.08a3,3,0,0,0-1.11-.66,5.35,5.35,0,0,0-1.82-.25,5.41,5.41,0,0,0-1.83.25,3.17,3.17,0,0,0-1.11.66,2,2,0,0,0-.53.91l-.08.61v2.45a2.36,2.36,0,0,0,1.27,2,13.33,13.33,0,0,0,2.32.74l.27.09.26.07a.65.65,0,0,1,.16.07l0,.1v1.59a.64.64,0,0,0,0,.07s-.08,0-.24.09a2.07,2.07,0,0,1-.57.06,1.78,1.78,0,0,1-.52-.06.6.6,0,0,1-.2-.1.64.64,0,0,1,0-.09v-.79H62.33v1l.08.61a2,2,0,0,0,.53.91,3,3,0,0,0,1.11.67,5.41,5.41,0,0,0,1.83.25,5.35,5.35,0,0,0,1.82-.25,2.35,2.35,0,0,0,1.72-2.18v-2a2.32,2.32,0,0,0-1.71-2.18L65.37,20l-.07,0a.79.79,0,0,1-.19-.08.34.34,0,0,0,0-.08v-2l0-.11s.06,0,.2-.09a1.78,1.78,0,0,1,.52-.06,2.07,2.07,0,0,1,.57.06l.24.11s0,0,0,0v.82h2.77v-1l-.08-.6A1.87,1.87,0,0,0,68.81,16.08Z"/>
            <path class="cls-2" d="M117,16.08a3.08,3.08,0,0,0-1.11-.66,5.35,5.35,0,0,0-1.82-.25,5.41,5.41,0,0,0-1.83.25,3.17,3.17,0,0,0-1.11.66,2,2,0,0,0-.53.92l-.08.6v9.64h2.75V23.08l.08-.06.2-.07,1-.31.24-.07v4.67h2.77V17.6l-.08-.6A1.89,1.89,0,0,0,117,16.08Zm-2.16,3.75,0,.09a.62.62,0,0,1-.17.07l-.33.1-.66.2-.37.12V17.85l0-.11a.77.77,0,0,1,.2-.09,1.78,1.78,0,0,1,.52-.06,2.07,2.07,0,0,1,.57.06l.24.11s0,.06,0,.06Z"/>
            <path class="cls-2" d="M108.31,16.08a3,3,0,0,0-1.11-.66,5.35,5.35,0,0,0-1.82-.25,5.73,5.73,0,0,0-1.5.16,4.74,4.74,0,0,0-.64.26,3.68,3.68,0,0,0-.69-.26,5.73,5.73,0,0,0-1.5-.16,5.31,5.31,0,0,0-1.82.25,2.94,2.94,0,0,0-1.11.66,1.82,1.82,0,0,0-.55.92l-.08.6v9.64h2.77V17.85l0-.11a1,1,0,0,1,.2-.09,1.81,1.81,0,0,1,.53-.06,2,2,0,0,1,.56.06l.24.11s0,.06,0,.06v9.42h2.78V17.85l0-.11a.65.65,0,0,1,.18-.09,1.84,1.84,0,0,1,.54-.06,2.07,2.07,0,0,1,.57.06l.23.11s0,.06,0,.06v9.42h2.75V17.6l-.09-.6A1.89,1.89,0,0,0,108.31,16.08Z"/>
            <path class="cls-2" d="M126.16,17a1.89,1.89,0,0,0-.53-.92,3.08,3.08,0,0,0-1.11-.66,6.79,6.79,0,0,0-3.65,0,3.17,3.17,0,0,0-1.11.66,1.94,1.94,0,0,0-.53.92l-.08.6v9.64h2.75V17.85l0-.11a.77.77,0,0,1,.2-.09,1.72,1.72,0,0,1,.52-.06,2,2,0,0,1,.58.06.86.86,0,0,1,.22.1s0,.07,0,.07v9.42h2.77V17.6Z"/>
            <path class="cls-2" d="M94.82,21.33a2.2,2.2,0,0,0,.42-1.28V17.6L95.15,17a1.91,1.91,0,0,0-.53-.91,3.17,3.17,0,0,0-1.11-.66,6.86,6.86,0,0,0-3.67,0,3.17,3.17,0,0,0-1.11.66,1.91,1.91,0,0,0-.53.91l-.09.61v9.64h2.78V23.06l.32-.13.3-.08,1.78,4.39h2.95l-2.14-5.3A2.29,2.29,0,0,0,94.82,21.33Zm-2.33-1.49a.58.58,0,0,0,0,.09s0,0-.17.06l-.17.06-.21.06-1,.3V17.85l0-.11.21-.09a1.75,1.75,0,0,1,.53-.06,2.07,2.07,0,0,1,.57.06l.25.11s0,.06,0,.06Z"/>
            <path class="cls-2" d="M75.66,20H73.77V15.31H71V27.24h2.78V22.51h1.89v4.73h2.75V15.31H75.66Z"/>
            <path class="cls-2" d="M81.45,15.51a2.61,2.61,0,0,0-.81.54,2.46,2.46,0,0,0-.5.75,2.17,2.17,0,0,0-.16.82v7.31a2.21,2.21,0,0,0,.16.82,2.81,2.81,0,0,0,.5.75,2.42,2.42,0,0,0,.81.53,2.75,2.75,0,0,0,1.11.21h4V24.9H83c-.18,0-.23,0-.25-.07a.16.16,0,0,1-.06-.13V22.51H85.8V20H82.73V17.86a.18.18,0,0,1,.06-.15s.07-.07.25-.07h3.51V15.31h-4A2.93,2.93,0,0,0,81.45,15.51Z"/>
        </g>
    </g>
</svg>